<mxfile host="app.diagrams.net" modified="2021-08-21T07:27:27.485Z" agent="5.0 (Macintosh; Intel Mac OS X 10_15_7) AppleWebKit/537.36 (KHTML, like Gecko) Chrome/92.0.4515.159 Safari/537.36" etag="bqwi4_mCJM3bVxII59QO" version="14.9.8" type="github">
  <diagram id="DFuUIDkGUYWDgCgqd3p5" name="Page-1">
    <mxGraphModel dx="794" dy="635" grid="1" gridSize="10" guides="1" tooltips="1" connect="1" arrows="1" fold="1" page="1" pageScale="1" pageWidth="827" pageHeight="1169" math="0" shadow="0">
      <root>
        <mxCell id="0" />
        <mxCell id="1" parent="0" />
        <mxCell id="DS7E4_nExzhwEGWsA5sy-1" value="0" style="rounded=0;whiteSpace=wrap;html=1;" vertex="1" parent="1">
          <mxGeometry x="120" y="260" width="60" height="60" as="geometry" />
        </mxCell>
        <mxCell id="DS7E4_nExzhwEGWsA5sy-2" value="1" style="rounded=0;whiteSpace=wrap;html=1;" vertex="1" parent="1">
          <mxGeometry x="200" y="260" width="60" height="60" as="geometry" />
        </mxCell>
        <mxCell id="DS7E4_nExzhwEGWsA5sy-3" value="3" style="rounded=0;whiteSpace=wrap;html=1;" vertex="1" parent="1">
          <mxGeometry x="354" y="260" width="60" height="60" as="geometry" />
        </mxCell>
        <mxCell id="DS7E4_nExzhwEGWsA5sy-4" value="2" style="rounded=0;whiteSpace=wrap;html=1;" vertex="1" parent="1">
          <mxGeometry x="280" y="260" width="60" height="60" as="geometry" />
        </mxCell>
        <mxCell id="DS7E4_nExzhwEGWsA5sy-5" value="4" style="rounded=0;whiteSpace=wrap;html=1;" vertex="1" parent="1">
          <mxGeometry x="430" y="260" width="60" height="60" as="geometry" />
        </mxCell>
        <mxCell id="DS7E4_nExzhwEGWsA5sy-6" value="" style="html=1;shadow=0;dashed=0;align=center;verticalAlign=middle;shape=mxgraph.arrows2.jumpInArrow;dy=4.77;dx=8.48;arrowHead=17.07;rotation=-225;flipH=0;flipV=1;" vertex="1" parent="1">
          <mxGeometry x="89.99999999999999" y="231.46" width="64.14" height="28.54" as="geometry" />
        </mxCell>
        <mxCell id="DS7E4_nExzhwEGWsA5sy-8" value="Input&lt;br&gt;Value" style="text;html=1;strokeColor=none;fillColor=none;align=center;verticalAlign=middle;whiteSpace=wrap;rounded=0;" vertex="1" parent="1">
          <mxGeometry x="154.14" y="220" width="40" height="20" as="geometry" />
        </mxCell>
        <mxCell id="DS7E4_nExzhwEGWsA5sy-9" value="unshift()" style="text;html=1;strokeColor=none;fillColor=none;align=center;verticalAlign=middle;whiteSpace=wrap;rounded=0;" vertex="1" parent="1">
          <mxGeometry x="90" y="220" width="40" height="20" as="geometry" />
        </mxCell>
        <mxCell id="DS7E4_nExzhwEGWsA5sy-10" value="" style="html=1;shadow=0;dashed=0;align=center;verticalAlign=middle;shape=mxgraph.arrows2.jumpInArrow;dy=4.77;dx=8.48;arrowHead=17.07;rotation=18;flipH=0;flipV=0;" vertex="1" parent="1">
          <mxGeometry x="170" y="240" width="64.14" height="28.54" as="geometry" />
        </mxCell>
        <mxCell id="DS7E4_nExzhwEGWsA5sy-11" value="" style="html=1;shadow=0;dashed=0;align=center;verticalAlign=middle;shape=mxgraph.arrows2.jumpInArrow;dy=4.77;dx=8.48;arrowHead=17.07;rotation=18;flipH=0;flipV=0;" vertex="1" parent="1">
          <mxGeometry x="240" y="240" width="64.14" height="28.54" as="geometry" />
        </mxCell>
        <mxCell id="DS7E4_nExzhwEGWsA5sy-12" value="" style="html=1;shadow=0;dashed=0;align=center;verticalAlign=middle;shape=mxgraph.arrows2.jumpInArrow;dy=4.77;dx=8.48;arrowHead=17.07;rotation=18;flipH=0;flipV=0;" vertex="1" parent="1">
          <mxGeometry x="324.14" y="240" width="64.14" height="28.54" as="geometry" />
        </mxCell>
        <mxCell id="DS7E4_nExzhwEGWsA5sy-14" value="" style="html=1;shadow=0;dashed=0;align=center;verticalAlign=middle;shape=mxgraph.arrows2.jumpInArrow;dy=4.77;dx=8.48;arrowHead=17.07;rotation=18;flipH=0;flipV=0;" vertex="1" parent="1">
          <mxGeometry x="400" y="240" width="64.14" height="28.54" as="geometry" />
        </mxCell>
        <mxCell id="DS7E4_nExzhwEGWsA5sy-15" value="" style="html=1;shadow=0;dashed=0;align=center;verticalAlign=middle;shape=mxgraph.arrows2.jumpInArrow;dy=4.77;dx=8.48;arrowHead=17.07;rotation=18;flipH=0;flipV=0;" vertex="1" parent="1">
          <mxGeometry x="470" y="240" width="64.14" height="28.54" as="geometry" />
        </mxCell>
        <mxCell id="DS7E4_nExzhwEGWsA5sy-17" value="" style="rounded=0;whiteSpace=wrap;html=1;dashed=1;" vertex="1" parent="1">
          <mxGeometry x="500" y="260" width="60" height="60" as="geometry" />
        </mxCell>
        <mxCell id="DS7E4_nExzhwEGWsA5sy-18" value="Move Each Values forward" style="text;html=1;strokeColor=none;fillColor=none;align=center;verticalAlign=middle;whiteSpace=wrap;rounded=0;" vertex="1" parent="1">
          <mxGeometry x="254.14" y="220" width="175.86" height="20" as="geometry" />
        </mxCell>
        <mxCell id="DS7E4_nExzhwEGWsA5sy-35" value="1" style="rounded=0;whiteSpace=wrap;html=1;" vertex="1" parent="1">
          <mxGeometry x="200" y="390" width="60" height="60" as="geometry" />
        </mxCell>
        <mxCell id="DS7E4_nExzhwEGWsA5sy-36" value="3" style="rounded=0;whiteSpace=wrap;html=1;" vertex="1" parent="1">
          <mxGeometry x="354" y="390" width="60" height="60" as="geometry" />
        </mxCell>
        <mxCell id="DS7E4_nExzhwEGWsA5sy-37" value="2" style="rounded=0;whiteSpace=wrap;html=1;" vertex="1" parent="1">
          <mxGeometry x="280" y="390" width="60" height="60" as="geometry" />
        </mxCell>
        <mxCell id="DS7E4_nExzhwEGWsA5sy-38" value="4" style="rounded=0;whiteSpace=wrap;html=1;" vertex="1" parent="1">
          <mxGeometry x="430" y="390" width="60" height="60" as="geometry" />
        </mxCell>
        <mxCell id="DS7E4_nExzhwEGWsA5sy-39" value="" style="html=1;shadow=0;dashed=0;align=center;verticalAlign=middle;shape=mxgraph.arrows2.jumpInArrow;dy=4.77;dx=8.48;arrowHead=17.07;rotation=-150;flipH=0;flipV=1;" vertex="1" parent="1">
          <mxGeometry x="89.99999999999999" y="350.00000000000006" width="64.14" height="28.54" as="geometry" />
        </mxCell>
        <mxCell id="DS7E4_nExzhwEGWsA5sy-40" value="Remove&lt;br&gt;Value" style="text;html=1;strokeColor=none;fillColor=none;align=center;verticalAlign=middle;whiteSpace=wrap;rounded=0;" vertex="1" parent="1">
          <mxGeometry x="140" y="350" width="40" height="20" as="geometry" />
        </mxCell>
        <mxCell id="DS7E4_nExzhwEGWsA5sy-42" value="" style="html=1;shadow=0;dashed=0;align=center;verticalAlign=middle;shape=mxgraph.arrows2.jumpInArrow;dy=4.77;dx=8.48;arrowHead=17.07;rotation=-10;flipH=1;flipV=0;" vertex="1" parent="1">
          <mxGeometry x="160" y="370" width="64.14" height="28.54" as="geometry" />
        </mxCell>
        <mxCell id="DS7E4_nExzhwEGWsA5sy-47" value="0" style="rounded=0;whiteSpace=wrap;html=1;dashed=1;" vertex="1" parent="1">
          <mxGeometry x="120" y="390" width="60" height="60" as="geometry" />
        </mxCell>
        <mxCell id="DS7E4_nExzhwEGWsA5sy-48" value="Move Each Values backword" style="text;html=1;strokeColor=none;fillColor=none;align=center;verticalAlign=middle;whiteSpace=wrap;rounded=0;" vertex="1" parent="1">
          <mxGeometry x="254.14" y="350" width="175.86" height="20" as="geometry" />
        </mxCell>
        <mxCell id="DS7E4_nExzhwEGWsA5sy-49" value="shift()" style="text;html=1;strokeColor=none;fillColor=none;align=center;verticalAlign=middle;whiteSpace=wrap;rounded=0;" vertex="1" parent="1">
          <mxGeometry x="90" y="358.53999999999996" width="40" height="20" as="geometry" />
        </mxCell>
        <mxCell id="DS7E4_nExzhwEGWsA5sy-51" value="" style="html=1;shadow=0;dashed=0;align=center;verticalAlign=middle;shape=mxgraph.arrows2.jumpInArrow;dy=4.77;dx=8.48;arrowHead=17.07;rotation=-10;flipH=1;flipV=0;" vertex="1" parent="1">
          <mxGeometry x="240" y="370" width="64.14" height="28.54" as="geometry" />
        </mxCell>
        <mxCell id="DS7E4_nExzhwEGWsA5sy-52" value="" style="html=1;shadow=0;dashed=0;align=center;verticalAlign=middle;shape=mxgraph.arrows2.jumpInArrow;dy=4.77;dx=8.48;arrowHead=17.07;rotation=-10;flipH=1;flipV=0;" vertex="1" parent="1">
          <mxGeometry x="324.14" y="370" width="64.14" height="28.54" as="geometry" />
        </mxCell>
        <mxCell id="DS7E4_nExzhwEGWsA5sy-53" value="" style="html=1;shadow=0;dashed=0;align=center;verticalAlign=middle;shape=mxgraph.arrows2.jumpInArrow;dy=4.77;dx=8.48;arrowHead=17.07;rotation=-10;flipH=1;flipV=0;" vertex="1" parent="1">
          <mxGeometry x="400" y="367.46" width="64.14" height="28.54" as="geometry" />
        </mxCell>
      </root>
    </mxGraphModel>
  </diagram>
</mxfile>
